<mxfile host="Electron" agent="Mozilla/5.0 (Windows NT 10.0; Win64; x64) AppleWebKit/537.36 (KHTML, like Gecko) draw.io/24.7.5 Chrome/126.0.6478.183 Electron/31.3.0 Safari/537.36" version="24.7.5">
  <diagram name="Page-1" id="TCGZ0_Hi_hQvVa-Gveew">
    <mxGraphModel dx="10094" dy="4609" grid="0" gridSize="10" guides="1" tooltips="1" connect="1" arrows="1" fold="1" page="1" pageScale="1" pageWidth="1654" pageHeight="1169" math="0" shadow="0">
      <root>
        <mxCell id="0" />
        <mxCell id="1" parent="0" />
        <mxCell id="U2D1ugLKrg8iWWPeUCbm-1" value="Товары" style="shape=table;startSize=30;container=1;collapsible=1;childLayout=tableLayout;fixedRows=1;rowLines=0;fontStyle=1;align=center;resizeLast=1;html=1;" parent="1" vertex="1">
          <mxGeometry x="-361" y="631" width="320" height="210" as="geometry" />
        </mxCell>
        <mxCell id="U2D1ugLKrg8iWWPeUCbm-2" value="" style="shape=tableRow;horizontal=0;startSize=0;swimlaneHead=0;swimlaneBody=0;fillColor=none;collapsible=0;dropTarget=0;points=[[0,0.5],[1,0.5]];portConstraint=eastwest;top=0;left=0;right=0;bottom=1;" parent="U2D1ugLKrg8iWWPeUCbm-1" vertex="1">
          <mxGeometry y="30" width="320" height="30" as="geometry" />
        </mxCell>
        <mxCell id="U2D1ugLKrg8iWWPeUCbm-3" value="PK" style="shape=partialRectangle;connectable=0;fillColor=none;top=0;left=0;bottom=0;right=0;fontStyle=1;overflow=hidden;whiteSpace=wrap;html=1;" parent="U2D1ugLKrg8iWWPeUCbm-2" vertex="1">
          <mxGeometry width="30" height="30" as="geometry">
            <mxRectangle width="30" height="30" as="alternateBounds" />
          </mxGeometry>
        </mxCell>
        <mxCell id="U2D1ugLKrg8iWWPeUCbm-4" value="ID товара" style="shape=partialRectangle;connectable=0;fillColor=none;top=0;left=0;bottom=0;right=0;align=left;spacingLeft=6;fontStyle=5;overflow=hidden;whiteSpace=wrap;html=1;" parent="U2D1ugLKrg8iWWPeUCbm-2" vertex="1">
          <mxGeometry x="30" width="290" height="30" as="geometry">
            <mxRectangle width="290" height="30" as="alternateBounds" />
          </mxGeometry>
        </mxCell>
        <mxCell id="U2D1ugLKrg8iWWPeUCbm-5" value="" style="shape=tableRow;horizontal=0;startSize=0;swimlaneHead=0;swimlaneBody=0;fillColor=none;collapsible=0;dropTarget=0;points=[[0,0.5],[1,0.5]];portConstraint=eastwest;top=0;left=0;right=0;bottom=0;" parent="U2D1ugLKrg8iWWPeUCbm-1" vertex="1">
          <mxGeometry y="60" width="320" height="30" as="geometry" />
        </mxCell>
        <mxCell id="U2D1ugLKrg8iWWPeUCbm-6" value="" style="shape=partialRectangle;connectable=0;fillColor=none;top=0;left=0;bottom=0;right=0;editable=1;overflow=hidden;whiteSpace=wrap;html=1;" parent="U2D1ugLKrg8iWWPeUCbm-5" vertex="1">
          <mxGeometry width="30" height="30" as="geometry">
            <mxRectangle width="30" height="30" as="alternateBounds" />
          </mxGeometry>
        </mxCell>
        <mxCell id="U2D1ugLKrg8iWWPeUCbm-7" value="Наименование товара" style="shape=partialRectangle;connectable=0;fillColor=none;top=0;left=0;bottom=0;right=0;align=left;spacingLeft=6;overflow=hidden;whiteSpace=wrap;html=1;" parent="U2D1ugLKrg8iWWPeUCbm-5" vertex="1">
          <mxGeometry x="30" width="290" height="30" as="geometry">
            <mxRectangle width="290" height="30" as="alternateBounds" />
          </mxGeometry>
        </mxCell>
        <mxCell id="U2D1ugLKrg8iWWPeUCbm-174" value="" style="shape=tableRow;horizontal=0;startSize=0;swimlaneHead=0;swimlaneBody=0;fillColor=none;collapsible=0;dropTarget=0;points=[[0,0.5],[1,0.5]];portConstraint=eastwest;top=0;left=0;right=0;bottom=0;" parent="U2D1ugLKrg8iWWPeUCbm-1" vertex="1">
          <mxGeometry y="90" width="320" height="30" as="geometry" />
        </mxCell>
        <mxCell id="U2D1ugLKrg8iWWPeUCbm-175" value="" style="shape=partialRectangle;connectable=0;fillColor=none;top=0;left=0;bottom=0;right=0;editable=1;overflow=hidden;whiteSpace=wrap;html=1;" parent="U2D1ugLKrg8iWWPeUCbm-174" vertex="1">
          <mxGeometry width="30" height="30" as="geometry">
            <mxRectangle width="30" height="30" as="alternateBounds" />
          </mxGeometry>
        </mxCell>
        <mxCell id="U2D1ugLKrg8iWWPeUCbm-176" value="Цена закупки" style="shape=partialRectangle;connectable=0;fillColor=none;top=0;left=0;bottom=0;right=0;align=left;spacingLeft=6;overflow=hidden;whiteSpace=wrap;html=1;" parent="U2D1ugLKrg8iWWPeUCbm-174" vertex="1">
          <mxGeometry x="30" width="290" height="30" as="geometry">
            <mxRectangle width="290" height="30" as="alternateBounds" />
          </mxGeometry>
        </mxCell>
        <mxCell id="U2D1ugLKrg8iWWPeUCbm-177" value="" style="shape=tableRow;horizontal=0;startSize=0;swimlaneHead=0;swimlaneBody=0;fillColor=none;collapsible=0;dropTarget=0;points=[[0,0.5],[1,0.5]];portConstraint=eastwest;top=0;left=0;right=0;bottom=0;" parent="U2D1ugLKrg8iWWPeUCbm-1" vertex="1">
          <mxGeometry y="120" width="320" height="30" as="geometry" />
        </mxCell>
        <mxCell id="U2D1ugLKrg8iWWPeUCbm-178" value="" style="shape=partialRectangle;connectable=0;fillColor=none;top=0;left=0;bottom=0;right=0;editable=1;overflow=hidden;whiteSpace=wrap;html=1;" parent="U2D1ugLKrg8iWWPeUCbm-177" vertex="1">
          <mxGeometry width="30" height="30" as="geometry">
            <mxRectangle width="30" height="30" as="alternateBounds" />
          </mxGeometry>
        </mxCell>
        <mxCell id="U2D1ugLKrg8iWWPeUCbm-179" value="Количество закупленного товара" style="shape=partialRectangle;connectable=0;fillColor=none;top=0;left=0;bottom=0;right=0;align=left;spacingLeft=6;overflow=hidden;whiteSpace=wrap;html=1;" parent="U2D1ugLKrg8iWWPeUCbm-177" vertex="1">
          <mxGeometry x="30" width="290" height="30" as="geometry">
            <mxRectangle width="290" height="30" as="alternateBounds" />
          </mxGeometry>
        </mxCell>
        <mxCell id="U2D1ugLKrg8iWWPeUCbm-171" value="" style="shape=tableRow;horizontal=0;startSize=0;swimlaneHead=0;swimlaneBody=0;fillColor=none;collapsible=0;dropTarget=0;points=[[0,0.5],[1,0.5]];portConstraint=eastwest;top=0;left=0;right=0;bottom=0;" parent="U2D1ugLKrg8iWWPeUCbm-1" vertex="1">
          <mxGeometry y="150" width="320" height="30" as="geometry" />
        </mxCell>
        <mxCell id="U2D1ugLKrg8iWWPeUCbm-172" value="" style="shape=partialRectangle;connectable=0;fillColor=none;top=0;left=0;bottom=0;right=0;editable=1;overflow=hidden;whiteSpace=wrap;html=1;" parent="U2D1ugLKrg8iWWPeUCbm-171" vertex="1">
          <mxGeometry width="30" height="30" as="geometry">
            <mxRectangle width="30" height="30" as="alternateBounds" />
          </mxGeometry>
        </mxCell>
        <mxCell id="U2D1ugLKrg8iWWPeUCbm-173" value="Дата закупки" style="shape=partialRectangle;connectable=0;fillColor=none;top=0;left=0;bottom=0;right=0;align=left;spacingLeft=6;overflow=hidden;whiteSpace=wrap;html=1;" parent="U2D1ugLKrg8iWWPeUCbm-171" vertex="1">
          <mxGeometry x="30" width="290" height="30" as="geometry">
            <mxRectangle width="290" height="30" as="alternateBounds" />
          </mxGeometry>
        </mxCell>
        <mxCell id="U2D1ugLKrg8iWWPeUCbm-8" value="" style="shape=tableRow;horizontal=0;startSize=0;swimlaneHead=0;swimlaneBody=0;fillColor=none;collapsible=0;dropTarget=0;points=[[0,0.5],[1,0.5]];portConstraint=eastwest;top=0;left=0;right=0;bottom=0;" parent="U2D1ugLKrg8iWWPeUCbm-1" vertex="1">
          <mxGeometry y="180" width="320" height="30" as="geometry" />
        </mxCell>
        <mxCell id="U2D1ugLKrg8iWWPeUCbm-9" value="FK" style="shape=partialRectangle;connectable=0;fillColor=none;top=0;left=0;bottom=0;right=0;editable=1;overflow=hidden;whiteSpace=wrap;html=1;" parent="U2D1ugLKrg8iWWPeUCbm-8" vertex="1">
          <mxGeometry width="30" height="30" as="geometry">
            <mxRectangle width="30" height="30" as="alternateBounds" />
          </mxGeometry>
        </mxCell>
        <mxCell id="U2D1ugLKrg8iWWPeUCbm-10" value="Наименование единицы измерения" style="shape=partialRectangle;connectable=0;fillColor=none;top=0;left=0;bottom=0;right=0;align=left;spacingLeft=6;overflow=hidden;whiteSpace=wrap;html=1;" parent="U2D1ugLKrg8iWWPeUCbm-8" vertex="1">
          <mxGeometry x="30" width="290" height="30" as="geometry">
            <mxRectangle width="290" height="30" as="alternateBounds" />
          </mxGeometry>
        </mxCell>
        <mxCell id="U2D1ugLKrg8iWWPeUCbm-14" value="Продавцы (Работники)" style="shape=table;startSize=30;container=1;collapsible=1;childLayout=tableLayout;fixedRows=1;rowLines=0;fontStyle=1;align=center;resizeLast=1;html=1;" parent="1" vertex="1">
          <mxGeometry x="686" y="600" width="320" height="270" as="geometry" />
        </mxCell>
        <mxCell id="U2D1ugLKrg8iWWPeUCbm-15" value="" style="shape=tableRow;horizontal=0;startSize=0;swimlaneHead=0;swimlaneBody=0;fillColor=none;collapsible=0;dropTarget=0;points=[[0,0.5],[1,0.5]];portConstraint=eastwest;top=0;left=0;right=0;bottom=1;" parent="U2D1ugLKrg8iWWPeUCbm-14" vertex="1">
          <mxGeometry y="30" width="320" height="30" as="geometry" />
        </mxCell>
        <mxCell id="U2D1ugLKrg8iWWPeUCbm-16" value="PK" style="shape=partialRectangle;connectable=0;fillColor=none;top=0;left=0;bottom=0;right=0;fontStyle=1;overflow=hidden;whiteSpace=wrap;html=1;" parent="U2D1ugLKrg8iWWPeUCbm-15" vertex="1">
          <mxGeometry width="30" height="30" as="geometry">
            <mxRectangle width="30" height="30" as="alternateBounds" />
          </mxGeometry>
        </mxCell>
        <mxCell id="U2D1ugLKrg8iWWPeUCbm-17" value="ID продавца" style="shape=partialRectangle;connectable=0;fillColor=none;top=0;left=0;bottom=0;right=0;align=left;spacingLeft=6;fontStyle=5;overflow=hidden;whiteSpace=wrap;html=1;" parent="U2D1ugLKrg8iWWPeUCbm-15" vertex="1">
          <mxGeometry x="30" width="290" height="30" as="geometry">
            <mxRectangle width="290" height="30" as="alternateBounds" />
          </mxGeometry>
        </mxCell>
        <mxCell id="U2D1ugLKrg8iWWPeUCbm-18" value="" style="shape=tableRow;horizontal=0;startSize=0;swimlaneHead=0;swimlaneBody=0;fillColor=none;collapsible=0;dropTarget=0;points=[[0,0.5],[1,0.5]];portConstraint=eastwest;top=0;left=0;right=0;bottom=0;" parent="U2D1ugLKrg8iWWPeUCbm-14" vertex="1">
          <mxGeometry y="60" width="320" height="30" as="geometry" />
        </mxCell>
        <mxCell id="U2D1ugLKrg8iWWPeUCbm-19" value="" style="shape=partialRectangle;connectable=0;fillColor=none;top=0;left=0;bottom=0;right=0;editable=1;overflow=hidden;whiteSpace=wrap;html=1;" parent="U2D1ugLKrg8iWWPeUCbm-18" vertex="1">
          <mxGeometry width="30" height="30" as="geometry">
            <mxRectangle width="30" height="30" as="alternateBounds" />
          </mxGeometry>
        </mxCell>
        <mxCell id="U2D1ugLKrg8iWWPeUCbm-20" value="Фамилия" style="shape=partialRectangle;connectable=0;fillColor=none;top=0;left=0;bottom=0;right=0;align=left;spacingLeft=6;overflow=hidden;whiteSpace=wrap;html=1;" parent="U2D1ugLKrg8iWWPeUCbm-18" vertex="1">
          <mxGeometry x="30" width="290" height="30" as="geometry">
            <mxRectangle width="290" height="30" as="alternateBounds" />
          </mxGeometry>
        </mxCell>
        <mxCell id="U2D1ugLKrg8iWWPeUCbm-21" value="" style="shape=tableRow;horizontal=0;startSize=0;swimlaneHead=0;swimlaneBody=0;fillColor=none;collapsible=0;dropTarget=0;points=[[0,0.5],[1,0.5]];portConstraint=eastwest;top=0;left=0;right=0;bottom=0;" parent="U2D1ugLKrg8iWWPeUCbm-14" vertex="1">
          <mxGeometry y="90" width="320" height="30" as="geometry" />
        </mxCell>
        <mxCell id="U2D1ugLKrg8iWWPeUCbm-22" value="" style="shape=partialRectangle;connectable=0;fillColor=none;top=0;left=0;bottom=0;right=0;editable=1;overflow=hidden;whiteSpace=wrap;html=1;" parent="U2D1ugLKrg8iWWPeUCbm-21" vertex="1">
          <mxGeometry width="30" height="30" as="geometry">
            <mxRectangle width="30" height="30" as="alternateBounds" />
          </mxGeometry>
        </mxCell>
        <mxCell id="U2D1ugLKrg8iWWPeUCbm-23" value="Имя" style="shape=partialRectangle;connectable=0;fillColor=none;top=0;left=0;bottom=0;right=0;align=left;spacingLeft=6;overflow=hidden;whiteSpace=wrap;html=1;" parent="U2D1ugLKrg8iWWPeUCbm-21" vertex="1">
          <mxGeometry x="30" width="290" height="30" as="geometry">
            <mxRectangle width="290" height="30" as="alternateBounds" />
          </mxGeometry>
        </mxCell>
        <mxCell id="U2D1ugLKrg8iWWPeUCbm-24" value="" style="shape=tableRow;horizontal=0;startSize=0;swimlaneHead=0;swimlaneBody=0;fillColor=none;collapsible=0;dropTarget=0;points=[[0,0.5],[1,0.5]];portConstraint=eastwest;top=0;left=0;right=0;bottom=0;" parent="U2D1ugLKrg8iWWPeUCbm-14" vertex="1">
          <mxGeometry y="120" width="320" height="30" as="geometry" />
        </mxCell>
        <mxCell id="U2D1ugLKrg8iWWPeUCbm-25" value="" style="shape=partialRectangle;connectable=0;fillColor=none;top=0;left=0;bottom=0;right=0;editable=1;overflow=hidden;whiteSpace=wrap;html=1;" parent="U2D1ugLKrg8iWWPeUCbm-24" vertex="1">
          <mxGeometry width="30" height="30" as="geometry">
            <mxRectangle width="30" height="30" as="alternateBounds" />
          </mxGeometry>
        </mxCell>
        <mxCell id="U2D1ugLKrg8iWWPeUCbm-26" value="Отчество" style="shape=partialRectangle;connectable=0;fillColor=none;top=0;left=0;bottom=0;right=0;align=left;spacingLeft=6;overflow=hidden;whiteSpace=wrap;html=1;" parent="U2D1ugLKrg8iWWPeUCbm-24" vertex="1">
          <mxGeometry x="30" width="290" height="30" as="geometry">
            <mxRectangle width="290" height="30" as="alternateBounds" />
          </mxGeometry>
        </mxCell>
        <mxCell id="U2D1ugLKrg8iWWPeUCbm-41" value="" style="shape=tableRow;horizontal=0;startSize=0;swimlaneHead=0;swimlaneBody=0;fillColor=none;collapsible=0;dropTarget=0;points=[[0,0.5],[1,0.5]];portConstraint=eastwest;top=0;left=0;right=0;bottom=0;" parent="U2D1ugLKrg8iWWPeUCbm-14" vertex="1">
          <mxGeometry y="150" width="320" height="30" as="geometry" />
        </mxCell>
        <mxCell id="U2D1ugLKrg8iWWPeUCbm-42" value="" style="shape=partialRectangle;connectable=0;fillColor=none;top=0;left=0;bottom=0;right=0;editable=1;overflow=hidden;whiteSpace=wrap;html=1;" parent="U2D1ugLKrg8iWWPeUCbm-41" vertex="1">
          <mxGeometry width="30" height="30" as="geometry">
            <mxRectangle width="30" height="30" as="alternateBounds" />
          </mxGeometry>
        </mxCell>
        <mxCell id="U2D1ugLKrg8iWWPeUCbm-43" value="Процент комиссионных" style="shape=partialRectangle;connectable=0;fillColor=none;top=0;left=0;bottom=0;right=0;align=left;spacingLeft=6;overflow=hidden;whiteSpace=wrap;html=1;" parent="U2D1ugLKrg8iWWPeUCbm-41" vertex="1">
          <mxGeometry x="30" width="290" height="30" as="geometry">
            <mxRectangle width="290" height="30" as="alternateBounds" />
          </mxGeometry>
        </mxCell>
        <mxCell id="U2D1ugLKrg8iWWPeUCbm-91" value="" style="shape=tableRow;horizontal=0;startSize=0;swimlaneHead=0;swimlaneBody=0;fillColor=none;collapsible=0;dropTarget=0;points=[[0,0.5],[1,0.5]];portConstraint=eastwest;top=0;left=0;right=0;bottom=0;" parent="U2D1ugLKrg8iWWPeUCbm-14" vertex="1">
          <mxGeometry y="180" width="320" height="30" as="geometry" />
        </mxCell>
        <mxCell id="U2D1ugLKrg8iWWPeUCbm-92" value="" style="shape=partialRectangle;connectable=0;fillColor=none;top=0;left=0;bottom=0;right=0;editable=1;overflow=hidden;whiteSpace=wrap;html=1;" parent="U2D1ugLKrg8iWWPeUCbm-91" vertex="1">
          <mxGeometry width="30" height="30" as="geometry">
            <mxRectangle width="30" height="30" as="alternateBounds" />
          </mxGeometry>
        </mxCell>
        <mxCell id="U2D1ugLKrg8iWWPeUCbm-93" value="Телефон" style="shape=partialRectangle;connectable=0;fillColor=none;top=0;left=0;bottom=0;right=0;align=left;spacingLeft=6;overflow=hidden;whiteSpace=wrap;html=1;" parent="U2D1ugLKrg8iWWPeUCbm-91" vertex="1">
          <mxGeometry x="30" width="290" height="30" as="geometry">
            <mxRectangle width="290" height="30" as="alternateBounds" />
          </mxGeometry>
        </mxCell>
        <mxCell id="U2D1ugLKrg8iWWPeUCbm-85" value="" style="shape=tableRow;horizontal=0;startSize=0;swimlaneHead=0;swimlaneBody=0;fillColor=none;collapsible=0;dropTarget=0;points=[[0,0.5],[1,0.5]];portConstraint=eastwest;top=0;left=0;right=0;bottom=0;" parent="U2D1ugLKrg8iWWPeUCbm-14" vertex="1">
          <mxGeometry y="210" width="320" height="30" as="geometry" />
        </mxCell>
        <mxCell id="U2D1ugLKrg8iWWPeUCbm-86" value="" style="shape=partialRectangle;connectable=0;fillColor=none;top=0;left=0;bottom=0;right=0;editable=1;overflow=hidden;whiteSpace=wrap;html=1;" parent="U2D1ugLKrg8iWWPeUCbm-85" vertex="1">
          <mxGeometry width="30" height="30" as="geometry">
            <mxRectangle width="30" height="30" as="alternateBounds" />
          </mxGeometry>
        </mxCell>
        <mxCell id="U2D1ugLKrg8iWWPeUCbm-87" value="Email" style="shape=partialRectangle;connectable=0;fillColor=none;top=0;left=0;bottom=0;right=0;align=left;spacingLeft=6;overflow=hidden;whiteSpace=wrap;html=1;" parent="U2D1ugLKrg8iWWPeUCbm-85" vertex="1">
          <mxGeometry x="30" width="290" height="30" as="geometry">
            <mxRectangle width="290" height="30" as="alternateBounds" />
          </mxGeometry>
        </mxCell>
        <mxCell id="U2D1ugLKrg8iWWPeUCbm-88" value="" style="shape=tableRow;horizontal=0;startSize=0;swimlaneHead=0;swimlaneBody=0;fillColor=none;collapsible=0;dropTarget=0;points=[[0,0.5],[1,0.5]];portConstraint=eastwest;top=0;left=0;right=0;bottom=0;" parent="U2D1ugLKrg8iWWPeUCbm-14" vertex="1">
          <mxGeometry y="240" width="320" height="30" as="geometry" />
        </mxCell>
        <mxCell id="U2D1ugLKrg8iWWPeUCbm-89" value="" style="shape=partialRectangle;connectable=0;fillColor=none;top=0;left=0;bottom=0;right=0;editable=1;overflow=hidden;whiteSpace=wrap;html=1;" parent="U2D1ugLKrg8iWWPeUCbm-88" vertex="1">
          <mxGeometry width="30" height="30" as="geometry">
            <mxRectangle width="30" height="30" as="alternateBounds" />
          </mxGeometry>
        </mxCell>
        <mxCell id="U2D1ugLKrg8iWWPeUCbm-90" value="Адрес" style="shape=partialRectangle;connectable=0;fillColor=none;top=0;left=0;bottom=0;right=0;align=left;spacingLeft=6;overflow=hidden;whiteSpace=wrap;html=1;" parent="U2D1ugLKrg8iWWPeUCbm-88" vertex="1">
          <mxGeometry x="30" width="290" height="30" as="geometry">
            <mxRectangle width="290" height="30" as="alternateBounds" />
          </mxGeometry>
        </mxCell>
        <mxCell id="U2D1ugLKrg8iWWPeUCbm-27" value="Продажи" style="shape=table;startSize=30;container=1;collapsible=1;childLayout=tableLayout;fixedRows=1;rowLines=0;fontStyle=1;align=center;resizeLast=1;html=1;" parent="1" vertex="1">
          <mxGeometry x="683" y="268" width="320" height="180" as="geometry" />
        </mxCell>
        <mxCell id="U2D1ugLKrg8iWWPeUCbm-28" value="" style="shape=tableRow;horizontal=0;startSize=0;swimlaneHead=0;swimlaneBody=0;fillColor=none;collapsible=0;dropTarget=0;points=[[0,0.5],[1,0.5]];portConstraint=eastwest;top=0;left=0;right=0;bottom=1;" parent="U2D1ugLKrg8iWWPeUCbm-27" vertex="1">
          <mxGeometry y="30" width="320" height="30" as="geometry" />
        </mxCell>
        <mxCell id="U2D1ugLKrg8iWWPeUCbm-29" value="PK" style="shape=partialRectangle;connectable=0;fillColor=none;top=0;left=0;bottom=0;right=0;fontStyle=1;overflow=hidden;whiteSpace=wrap;html=1;" parent="U2D1ugLKrg8iWWPeUCbm-28" vertex="1">
          <mxGeometry width="30" height="30" as="geometry">
            <mxRectangle width="30" height="30" as="alternateBounds" />
          </mxGeometry>
        </mxCell>
        <mxCell id="U2D1ugLKrg8iWWPeUCbm-30" value="ID продажи" style="shape=partialRectangle;connectable=0;fillColor=none;top=0;left=0;bottom=0;right=0;align=left;spacingLeft=6;fontStyle=5;overflow=hidden;whiteSpace=wrap;html=1;" parent="U2D1ugLKrg8iWWPeUCbm-28" vertex="1">
          <mxGeometry x="30" width="290" height="30" as="geometry">
            <mxRectangle width="290" height="30" as="alternateBounds" />
          </mxGeometry>
        </mxCell>
        <mxCell id="U2D1ugLKrg8iWWPeUCbm-34" value="" style="shape=tableRow;horizontal=0;startSize=0;swimlaneHead=0;swimlaneBody=0;fillColor=none;collapsible=0;dropTarget=0;points=[[0,0.5],[1,0.5]];portConstraint=eastwest;top=0;left=0;right=0;bottom=0;" parent="U2D1ugLKrg8iWWPeUCbm-27" vertex="1">
          <mxGeometry y="60" width="320" height="30" as="geometry" />
        </mxCell>
        <mxCell id="U2D1ugLKrg8iWWPeUCbm-35" value="" style="shape=partialRectangle;connectable=0;fillColor=none;top=0;left=0;bottom=0;right=0;editable=1;overflow=hidden;whiteSpace=wrap;html=1;" parent="U2D1ugLKrg8iWWPeUCbm-34" vertex="1">
          <mxGeometry width="30" height="30" as="geometry">
            <mxRectangle width="30" height="30" as="alternateBounds" />
          </mxGeometry>
        </mxCell>
        <mxCell id="U2D1ugLKrg8iWWPeUCbm-36" value="Цена продажи" style="shape=partialRectangle;connectable=0;fillColor=none;top=0;left=0;bottom=0;right=0;align=left;spacingLeft=6;overflow=hidden;whiteSpace=wrap;html=1;" parent="U2D1ugLKrg8iWWPeUCbm-34" vertex="1">
          <mxGeometry x="30" width="290" height="30" as="geometry">
            <mxRectangle width="290" height="30" as="alternateBounds" />
          </mxGeometry>
        </mxCell>
        <mxCell id="U2D1ugLKrg8iWWPeUCbm-79" value="" style="shape=tableRow;horizontal=0;startSize=0;swimlaneHead=0;swimlaneBody=0;fillColor=none;collapsible=0;dropTarget=0;points=[[0,0.5],[1,0.5]];portConstraint=eastwest;top=0;left=0;right=0;bottom=0;" parent="U2D1ugLKrg8iWWPeUCbm-27" vertex="1">
          <mxGeometry y="90" width="320" height="30" as="geometry" />
        </mxCell>
        <mxCell id="U2D1ugLKrg8iWWPeUCbm-80" value="" style="shape=partialRectangle;connectable=0;fillColor=none;top=0;left=0;bottom=0;right=0;editable=1;overflow=hidden;whiteSpace=wrap;html=1;" parent="U2D1ugLKrg8iWWPeUCbm-79" vertex="1">
          <mxGeometry width="30" height="30" as="geometry">
            <mxRectangle width="30" height="30" as="alternateBounds" />
          </mxGeometry>
        </mxCell>
        <mxCell id="U2D1ugLKrg8iWWPeUCbm-81" value="Количество проданного товара" style="shape=partialRectangle;connectable=0;fillColor=none;top=0;left=0;bottom=0;right=0;align=left;spacingLeft=6;overflow=hidden;whiteSpace=wrap;html=1;" parent="U2D1ugLKrg8iWWPeUCbm-79" vertex="1">
          <mxGeometry x="30" width="290" height="30" as="geometry">
            <mxRectangle width="290" height="30" as="alternateBounds" />
          </mxGeometry>
        </mxCell>
        <mxCell id="U2D1ugLKrg8iWWPeUCbm-37" value="" style="shape=tableRow;horizontal=0;startSize=0;swimlaneHead=0;swimlaneBody=0;fillColor=none;collapsible=0;dropTarget=0;points=[[0,0.5],[1,0.5]];portConstraint=eastwest;top=0;left=0;right=0;bottom=0;" parent="U2D1ugLKrg8iWWPeUCbm-27" vertex="1">
          <mxGeometry y="120" width="320" height="30" as="geometry" />
        </mxCell>
        <mxCell id="U2D1ugLKrg8iWWPeUCbm-38" value="" style="shape=partialRectangle;connectable=0;fillColor=none;top=0;left=0;bottom=0;right=0;editable=1;overflow=hidden;whiteSpace=wrap;html=1;" parent="U2D1ugLKrg8iWWPeUCbm-37" vertex="1">
          <mxGeometry width="30" height="30" as="geometry">
            <mxRectangle width="30" height="30" as="alternateBounds" />
          </mxGeometry>
        </mxCell>
        <mxCell id="U2D1ugLKrg8iWWPeUCbm-39" value="Дата продажи" style="shape=partialRectangle;connectable=0;fillColor=none;top=0;left=0;bottom=0;right=0;align=left;spacingLeft=6;overflow=hidden;whiteSpace=wrap;html=1;" parent="U2D1ugLKrg8iWWPeUCbm-37" vertex="1">
          <mxGeometry x="30" width="290" height="30" as="geometry">
            <mxRectangle width="290" height="30" as="alternateBounds" />
          </mxGeometry>
        </mxCell>
        <mxCell id="U2D1ugLKrg8iWWPeUCbm-130" value="" style="shape=tableRow;horizontal=0;startSize=0;swimlaneHead=0;swimlaneBody=0;fillColor=none;collapsible=0;dropTarget=0;points=[[0,0.5],[1,0.5]];portConstraint=eastwest;top=0;left=0;right=0;bottom=0;" parent="U2D1ugLKrg8iWWPeUCbm-27" vertex="1">
          <mxGeometry y="150" width="320" height="30" as="geometry" />
        </mxCell>
        <mxCell id="U2D1ugLKrg8iWWPeUCbm-131" value="FK" style="shape=partialRectangle;connectable=0;fillColor=none;top=0;left=0;bottom=0;right=0;editable=1;overflow=hidden;whiteSpace=wrap;html=1;" parent="U2D1ugLKrg8iWWPeUCbm-130" vertex="1">
          <mxGeometry width="30" height="30" as="geometry">
            <mxRectangle width="30" height="30" as="alternateBounds" />
          </mxGeometry>
        </mxCell>
        <mxCell id="U2D1ugLKrg8iWWPeUCbm-132" value="ID товара-продавца" style="shape=partialRectangle;connectable=0;fillColor=none;top=0;left=0;bottom=0;right=0;align=left;spacingLeft=6;overflow=hidden;whiteSpace=wrap;html=1;" parent="U2D1ugLKrg8iWWPeUCbm-130" vertex="1">
          <mxGeometry x="30" width="290" height="30" as="geometry">
            <mxRectangle width="290" height="30" as="alternateBounds" />
          </mxGeometry>
        </mxCell>
        <mxCell id="U2D1ugLKrg8iWWPeUCbm-47" value="Единицы измерения" style="shape=table;startSize=30;container=1;collapsible=1;childLayout=tableLayout;fixedRows=1;rowLines=0;fontStyle=1;align=center;resizeLast=1;html=1;" parent="1" vertex="1">
          <mxGeometry x="-921" y="871" width="320" height="60" as="geometry" />
        </mxCell>
        <mxCell id="U2D1ugLKrg8iWWPeUCbm-48" value="" style="shape=tableRow;horizontal=0;startSize=0;swimlaneHead=0;swimlaneBody=0;fillColor=none;collapsible=0;dropTarget=0;points=[[0,0.5],[1,0.5]];portConstraint=eastwest;top=0;left=0;right=0;bottom=1;" parent="U2D1ugLKrg8iWWPeUCbm-47" vertex="1">
          <mxGeometry y="30" width="320" height="30" as="geometry" />
        </mxCell>
        <mxCell id="U2D1ugLKrg8iWWPeUCbm-49" value="PK" style="shape=partialRectangle;connectable=0;fillColor=none;top=0;left=0;bottom=0;right=0;fontStyle=1;overflow=hidden;whiteSpace=wrap;html=1;" parent="U2D1ugLKrg8iWWPeUCbm-48" vertex="1">
          <mxGeometry width="30" height="30" as="geometry">
            <mxRectangle width="30" height="30" as="alternateBounds" />
          </mxGeometry>
        </mxCell>
        <mxCell id="U2D1ugLKrg8iWWPeUCbm-50" value="Наименование единицы измерения" style="shape=partialRectangle;connectable=0;fillColor=none;top=0;left=0;bottom=0;right=0;align=left;spacingLeft=6;fontStyle=5;overflow=hidden;whiteSpace=wrap;html=1;" parent="U2D1ugLKrg8iWWPeUCbm-48" vertex="1">
          <mxGeometry x="30" width="290" height="30" as="geometry">
            <mxRectangle width="290" height="30" as="alternateBounds" />
          </mxGeometry>
        </mxCell>
        <mxCell id="U2D1ugLKrg8iWWPeUCbm-64" value="" style="edgeStyle=entityRelationEdgeStyle;fontSize=12;html=1;endArrow=ERoneToMany;rounded=0;entryX=0;entryY=0.5;entryDx=0;entryDy=0;exitX=1;exitY=0.5;exitDx=0;exitDy=0;" parent="1" source="U2D1ugLKrg8iWWPeUCbm-48" target="U2D1ugLKrg8iWWPeUCbm-8" edge="1">
          <mxGeometry width="100" height="100" relative="1" as="geometry">
            <mxPoint x="-141" y="761" as="sourcePoint" />
            <mxPoint x="-41" y="661" as="targetPoint" />
          </mxGeometry>
        </mxCell>
        <mxCell id="U2D1ugLKrg8iWWPeUCbm-65" value="Каждая единица&lt;br&gt;измерения&lt;br&gt;уникальна и&lt;br&gt;может использоваться&lt;br&gt;в таблице товаров&lt;br&gt;(не надо каждый раз&lt;br&gt;вводить наименоввание,&lt;br&gt;достаточно один раз их&lt;br&gt;перечислить)" style="edgeLabel;html=1;align=center;verticalAlign=middle;resizable=0;points=[];" parent="U2D1ugLKrg8iWWPeUCbm-64" vertex="1" connectable="0">
          <mxGeometry x="0.0078" y="2" relative="1" as="geometry">
            <mxPoint as="offset" />
          </mxGeometry>
        </mxCell>
        <mxCell id="U2D1ugLKrg8iWWPeUCbm-155" value="Товары_Продавцы" style="shape=table;startSize=30;container=1;collapsible=1;childLayout=tableLayout;fixedRows=1;rowLines=0;fontStyle=1;align=center;resizeLast=1;html=1;" parent="1" vertex="1">
          <mxGeometry x="206" y="480" width="320" height="120" as="geometry" />
        </mxCell>
        <mxCell id="U2D1ugLKrg8iWWPeUCbm-156" value="" style="shape=tableRow;horizontal=0;startSize=0;swimlaneHead=0;swimlaneBody=0;fillColor=none;collapsible=0;dropTarget=0;points=[[0,0.5],[1,0.5]];portConstraint=eastwest;top=0;left=0;right=0;bottom=1;" parent="U2D1ugLKrg8iWWPeUCbm-155" vertex="1">
          <mxGeometry y="30" width="320" height="30" as="geometry" />
        </mxCell>
        <mxCell id="U2D1ugLKrg8iWWPeUCbm-157" value="PK" style="shape=partialRectangle;connectable=0;fillColor=none;top=0;left=0;bottom=0;right=0;fontStyle=1;overflow=hidden;whiteSpace=wrap;html=1;" parent="U2D1ugLKrg8iWWPeUCbm-156" vertex="1">
          <mxGeometry width="30" height="30" as="geometry">
            <mxRectangle width="30" height="30" as="alternateBounds" />
          </mxGeometry>
        </mxCell>
        <mxCell id="U2D1ugLKrg8iWWPeUCbm-158" value="ID товара-продавца" style="shape=partialRectangle;connectable=0;fillColor=none;top=0;left=0;bottom=0;right=0;align=left;spacingLeft=6;fontStyle=5;overflow=hidden;whiteSpace=wrap;html=1;" parent="U2D1ugLKrg8iWWPeUCbm-156" vertex="1">
          <mxGeometry x="30" width="290" height="30" as="geometry">
            <mxRectangle width="290" height="30" as="alternateBounds" />
          </mxGeometry>
        </mxCell>
        <mxCell id="U2D1ugLKrg8iWWPeUCbm-159" value="" style="shape=tableRow;horizontal=0;startSize=0;swimlaneHead=0;swimlaneBody=0;fillColor=none;collapsible=0;dropTarget=0;points=[[0,0.5],[1,0.5]];portConstraint=eastwest;top=0;left=0;right=0;bottom=0;" parent="U2D1ugLKrg8iWWPeUCbm-155" vertex="1">
          <mxGeometry y="60" width="320" height="30" as="geometry" />
        </mxCell>
        <mxCell id="U2D1ugLKrg8iWWPeUCbm-160" value="FK" style="shape=partialRectangle;connectable=0;fillColor=none;top=0;left=0;bottom=0;right=0;editable=1;overflow=hidden;whiteSpace=wrap;html=1;" parent="U2D1ugLKrg8iWWPeUCbm-159" vertex="1">
          <mxGeometry width="30" height="30" as="geometry">
            <mxRectangle width="30" height="30" as="alternateBounds" />
          </mxGeometry>
        </mxCell>
        <mxCell id="U2D1ugLKrg8iWWPeUCbm-161" value="ID товара" style="shape=partialRectangle;connectable=0;fillColor=none;top=0;left=0;bottom=0;right=0;align=left;spacingLeft=6;overflow=hidden;whiteSpace=wrap;html=1;" parent="U2D1ugLKrg8iWWPeUCbm-159" vertex="1">
          <mxGeometry x="30" width="290" height="30" as="geometry">
            <mxRectangle width="290" height="30" as="alternateBounds" />
          </mxGeometry>
        </mxCell>
        <mxCell id="U2D1ugLKrg8iWWPeUCbm-162" value="" style="shape=tableRow;horizontal=0;startSize=0;swimlaneHead=0;swimlaneBody=0;fillColor=none;collapsible=0;dropTarget=0;points=[[0,0.5],[1,0.5]];portConstraint=eastwest;top=0;left=0;right=0;bottom=0;" parent="U2D1ugLKrg8iWWPeUCbm-155" vertex="1">
          <mxGeometry y="90" width="320" height="30" as="geometry" />
        </mxCell>
        <mxCell id="U2D1ugLKrg8iWWPeUCbm-163" value="FK" style="shape=partialRectangle;connectable=0;fillColor=none;top=0;left=0;bottom=0;right=0;editable=1;overflow=hidden;whiteSpace=wrap;html=1;" parent="U2D1ugLKrg8iWWPeUCbm-162" vertex="1">
          <mxGeometry width="30" height="30" as="geometry">
            <mxRectangle width="30" height="30" as="alternateBounds" />
          </mxGeometry>
        </mxCell>
        <mxCell id="U2D1ugLKrg8iWWPeUCbm-164" value="ID продавца" style="shape=partialRectangle;connectable=0;fillColor=none;top=0;left=0;bottom=0;right=0;align=left;spacingLeft=6;overflow=hidden;whiteSpace=wrap;html=1;" parent="U2D1ugLKrg8iWWPeUCbm-162" vertex="1">
          <mxGeometry x="30" width="290" height="30" as="geometry">
            <mxRectangle width="290" height="30" as="alternateBounds" />
          </mxGeometry>
        </mxCell>
        <mxCell id="U2D1ugLKrg8iWWPeUCbm-165" value="" style="edgeStyle=entityRelationEdgeStyle;fontSize=12;html=1;endArrow=ERoneToMany;rounded=0;entryX=1;entryY=0.5;entryDx=0;entryDy=0;exitX=0;exitY=0.5;exitDx=0;exitDy=0;" parent="1" source="U2D1ugLKrg8iWWPeUCbm-15" target="U2D1ugLKrg8iWWPeUCbm-162" edge="1">
          <mxGeometry width="100" height="100" relative="1" as="geometry">
            <mxPoint x="540" y="702" as="sourcePoint" />
            <mxPoint x="596" y="590" as="targetPoint" />
          </mxGeometry>
        </mxCell>
        <mxCell id="U2D1ugLKrg8iWWPeUCbm-264" value="Связь товаров и продавцов&lt;br style=&quot;border-color: var(--border-color);&quot;&gt;через дополнительную&lt;br style=&quot;border-color: var(--border-color);&quot;&gt;сущность" style="edgeLabel;html=1;align=center;verticalAlign=middle;resizable=0;points=[];" parent="U2D1ugLKrg8iWWPeUCbm-165" vertex="1" connectable="0">
          <mxGeometry x="-0.0019" y="1" relative="1" as="geometry">
            <mxPoint as="offset" />
          </mxGeometry>
        </mxCell>
        <mxCell id="U2D1ugLKrg8iWWPeUCbm-166" value="" style="edgeStyle=entityRelationEdgeStyle;fontSize=12;html=1;endArrow=ERoneToMany;rounded=0;entryX=0;entryY=0.5;entryDx=0;entryDy=0;exitX=1;exitY=0.5;exitDx=0;exitDy=0;" parent="1" source="U2D1ugLKrg8iWWPeUCbm-2" target="U2D1ugLKrg8iWWPeUCbm-159" edge="1">
          <mxGeometry width="100" height="100" relative="1" as="geometry">
            <mxPoint x="76" y="660" as="sourcePoint" />
            <mxPoint x="286" y="710" as="targetPoint" />
          </mxGeometry>
        </mxCell>
        <mxCell id="U2D1ugLKrg8iWWPeUCbm-261" value="Text" style="edgeLabel;html=1;align=center;verticalAlign=middle;resizable=0;points=[];" parent="U2D1ugLKrg8iWWPeUCbm-166" vertex="1" connectable="0">
          <mxGeometry x="-0.1034" y="3" relative="1" as="geometry">
            <mxPoint x="9" y="-4" as="offset" />
          </mxGeometry>
        </mxCell>
        <mxCell id="U2D1ugLKrg8iWWPeUCbm-262" value="Связь товаров и продавцов&lt;br&gt;через дополнительную&lt;br&gt;сущность" style="edgeLabel;html=1;align=center;verticalAlign=middle;resizable=0;points=[];" parent="U2D1ugLKrg8iWWPeUCbm-166" vertex="1" connectable="0">
          <mxGeometry x="-0.0008" y="-2" relative="1" as="geometry">
            <mxPoint as="offset" />
          </mxGeometry>
        </mxCell>
        <mxCell id="U2D1ugLKrg8iWWPeUCbm-167" value="" style="edgeStyle=entityRelationEdgeStyle;fontSize=12;html=1;endArrow=ERoneToMany;rounded=0;entryX=0;entryY=0.5;entryDx=0;entryDy=0;exitX=1;exitY=0.5;exitDx=0;exitDy=0;" parent="1" source="U2D1ugLKrg8iWWPeUCbm-156" target="U2D1ugLKrg8iWWPeUCbm-130" edge="1">
          <mxGeometry width="100" height="100" relative="1" as="geometry">
            <mxPoint x="646" y="325" as="sourcePoint" />
            <mxPoint x="486" y="265" as="targetPoint" />
          </mxGeometry>
        </mxCell>
        <mxCell id="U2D1ugLKrg8iWWPeUCbm-265" value="Продажи происходят&lt;br&gt;по конкретному&lt;br&gt;товару и продавцу" style="edgeLabel;html=1;align=center;verticalAlign=middle;resizable=0;points=[];" parent="U2D1ugLKrg8iWWPeUCbm-167" vertex="1" connectable="0">
          <mxGeometry x="-0.0591" y="-1" relative="1" as="geometry">
            <mxPoint as="offset" />
          </mxGeometry>
        </mxCell>
        <mxCell id="UtjECsLi1JTCb0Gw62uX-1" value="Пользователи" style="shape=table;startSize=30;container=1;collapsible=1;childLayout=tableLayout;fixedRows=1;rowLines=0;fontStyle=1;align=center;resizeLast=1;html=1;" parent="1" vertex="1">
          <mxGeometry x="1299" y="231" width="320" height="210" as="geometry" />
        </mxCell>
        <mxCell id="UtjECsLi1JTCb0Gw62uX-2" value="" style="shape=tableRow;horizontal=0;startSize=0;swimlaneHead=0;swimlaneBody=0;fillColor=none;collapsible=0;dropTarget=0;points=[[0,0.5],[1,0.5]];portConstraint=eastwest;top=0;left=0;right=0;bottom=1;" parent="UtjECsLi1JTCb0Gw62uX-1" vertex="1">
          <mxGeometry y="30" width="320" height="30" as="geometry" />
        </mxCell>
        <mxCell id="UtjECsLi1JTCb0Gw62uX-3" value="PK" style="shape=partialRectangle;connectable=0;fillColor=none;top=0;left=0;bottom=0;right=0;fontStyle=1;overflow=hidden;whiteSpace=wrap;html=1;" parent="UtjECsLi1JTCb0Gw62uX-2" vertex="1">
          <mxGeometry width="30" height="30" as="geometry">
            <mxRectangle width="30" height="30" as="alternateBounds" />
          </mxGeometry>
        </mxCell>
        <mxCell id="UtjECsLi1JTCb0Gw62uX-4" value="ID пользователя" style="shape=partialRectangle;connectable=0;fillColor=none;top=0;left=0;bottom=0;right=0;align=left;spacingLeft=6;fontStyle=5;overflow=hidden;whiteSpace=wrap;html=1;" parent="UtjECsLi1JTCb0Gw62uX-2" vertex="1">
          <mxGeometry x="30" width="290" height="30" as="geometry">
            <mxRectangle width="290" height="30" as="alternateBounds" />
          </mxGeometry>
        </mxCell>
        <mxCell id="UtjECsLi1JTCb0Gw62uX-5" value="" style="shape=tableRow;horizontal=0;startSize=0;swimlaneHead=0;swimlaneBody=0;fillColor=none;collapsible=0;dropTarget=0;points=[[0,0.5],[1,0.5]];portConstraint=eastwest;top=0;left=0;right=0;bottom=0;" parent="UtjECsLi1JTCb0Gw62uX-1" vertex="1">
          <mxGeometry y="60" width="320" height="30" as="geometry" />
        </mxCell>
        <mxCell id="UtjECsLi1JTCb0Gw62uX-6" value="" style="shape=partialRectangle;connectable=0;fillColor=none;top=0;left=0;bottom=0;right=0;editable=1;overflow=hidden;whiteSpace=wrap;html=1;" parent="UtjECsLi1JTCb0Gw62uX-5" vertex="1">
          <mxGeometry width="30" height="30" as="geometry">
            <mxRectangle width="30" height="30" as="alternateBounds" />
          </mxGeometry>
        </mxCell>
        <mxCell id="UtjECsLi1JTCb0Gw62uX-7" value="Наименование товара" style="shape=partialRectangle;connectable=0;fillColor=none;top=0;left=0;bottom=0;right=0;align=left;spacingLeft=6;overflow=hidden;whiteSpace=wrap;html=1;" parent="UtjECsLi1JTCb0Gw62uX-5" vertex="1">
          <mxGeometry x="30" width="290" height="30" as="geometry">
            <mxRectangle width="290" height="30" as="alternateBounds" />
          </mxGeometry>
        </mxCell>
        <mxCell id="UtjECsLi1JTCb0Gw62uX-8" value="" style="shape=tableRow;horizontal=0;startSize=0;swimlaneHead=0;swimlaneBody=0;fillColor=none;collapsible=0;dropTarget=0;points=[[0,0.5],[1,0.5]];portConstraint=eastwest;top=0;left=0;right=0;bottom=0;" parent="UtjECsLi1JTCb0Gw62uX-1" vertex="1">
          <mxGeometry y="90" width="320" height="30" as="geometry" />
        </mxCell>
        <mxCell id="UtjECsLi1JTCb0Gw62uX-9" value="" style="shape=partialRectangle;connectable=0;fillColor=none;top=0;left=0;bottom=0;right=0;editable=1;overflow=hidden;whiteSpace=wrap;html=1;" parent="UtjECsLi1JTCb0Gw62uX-8" vertex="1">
          <mxGeometry width="30" height="30" as="geometry">
            <mxRectangle width="30" height="30" as="alternateBounds" />
          </mxGeometry>
        </mxCell>
        <mxCell id="UtjECsLi1JTCb0Gw62uX-10" value="Цена закупки" style="shape=partialRectangle;connectable=0;fillColor=none;top=0;left=0;bottom=0;right=0;align=left;spacingLeft=6;overflow=hidden;whiteSpace=wrap;html=1;" parent="UtjECsLi1JTCb0Gw62uX-8" vertex="1">
          <mxGeometry x="30" width="290" height="30" as="geometry">
            <mxRectangle width="290" height="30" as="alternateBounds" />
          </mxGeometry>
        </mxCell>
        <mxCell id="UtjECsLi1JTCb0Gw62uX-11" value="" style="shape=tableRow;horizontal=0;startSize=0;swimlaneHead=0;swimlaneBody=0;fillColor=none;collapsible=0;dropTarget=0;points=[[0,0.5],[1,0.5]];portConstraint=eastwest;top=0;left=0;right=0;bottom=0;" parent="UtjECsLi1JTCb0Gw62uX-1" vertex="1">
          <mxGeometry y="120" width="320" height="30" as="geometry" />
        </mxCell>
        <mxCell id="UtjECsLi1JTCb0Gw62uX-12" value="" style="shape=partialRectangle;connectable=0;fillColor=none;top=0;left=0;bottom=0;right=0;editable=1;overflow=hidden;whiteSpace=wrap;html=1;" parent="UtjECsLi1JTCb0Gw62uX-11" vertex="1">
          <mxGeometry width="30" height="30" as="geometry">
            <mxRectangle width="30" height="30" as="alternateBounds" />
          </mxGeometry>
        </mxCell>
        <mxCell id="UtjECsLi1JTCb0Gw62uX-13" value="Количество закупленного товара" style="shape=partialRectangle;connectable=0;fillColor=none;top=0;left=0;bottom=0;right=0;align=left;spacingLeft=6;overflow=hidden;whiteSpace=wrap;html=1;" parent="UtjECsLi1JTCb0Gw62uX-11" vertex="1">
          <mxGeometry x="30" width="290" height="30" as="geometry">
            <mxRectangle width="290" height="30" as="alternateBounds" />
          </mxGeometry>
        </mxCell>
        <mxCell id="UtjECsLi1JTCb0Gw62uX-14" value="" style="shape=tableRow;horizontal=0;startSize=0;swimlaneHead=0;swimlaneBody=0;fillColor=none;collapsible=0;dropTarget=0;points=[[0,0.5],[1,0.5]];portConstraint=eastwest;top=0;left=0;right=0;bottom=0;" parent="UtjECsLi1JTCb0Gw62uX-1" vertex="1">
          <mxGeometry y="150" width="320" height="30" as="geometry" />
        </mxCell>
        <mxCell id="UtjECsLi1JTCb0Gw62uX-15" value="" style="shape=partialRectangle;connectable=0;fillColor=none;top=0;left=0;bottom=0;right=0;editable=1;overflow=hidden;whiteSpace=wrap;html=1;" parent="UtjECsLi1JTCb0Gw62uX-14" vertex="1">
          <mxGeometry width="30" height="30" as="geometry">
            <mxRectangle width="30" height="30" as="alternateBounds" />
          </mxGeometry>
        </mxCell>
        <mxCell id="UtjECsLi1JTCb0Gw62uX-16" value="Дата закупки" style="shape=partialRectangle;connectable=0;fillColor=none;top=0;left=0;bottom=0;right=0;align=left;spacingLeft=6;overflow=hidden;whiteSpace=wrap;html=1;" parent="UtjECsLi1JTCb0Gw62uX-14" vertex="1">
          <mxGeometry x="30" width="290" height="30" as="geometry">
            <mxRectangle width="290" height="30" as="alternateBounds" />
          </mxGeometry>
        </mxCell>
        <mxCell id="UtjECsLi1JTCb0Gw62uX-17" value="" style="shape=tableRow;horizontal=0;startSize=0;swimlaneHead=0;swimlaneBody=0;fillColor=none;collapsible=0;dropTarget=0;points=[[0,0.5],[1,0.5]];portConstraint=eastwest;top=0;left=0;right=0;bottom=0;" parent="UtjECsLi1JTCb0Gw62uX-1" vertex="1">
          <mxGeometry y="180" width="320" height="30" as="geometry" />
        </mxCell>
        <mxCell id="UtjECsLi1JTCb0Gw62uX-18" value="FK" style="shape=partialRectangle;connectable=0;fillColor=none;top=0;left=0;bottom=0;right=0;editable=1;overflow=hidden;whiteSpace=wrap;html=1;" parent="UtjECsLi1JTCb0Gw62uX-17" vertex="1">
          <mxGeometry width="30" height="30" as="geometry">
            <mxRectangle width="30" height="30" as="alternateBounds" />
          </mxGeometry>
        </mxCell>
        <mxCell id="UtjECsLi1JTCb0Gw62uX-19" value="Наименование единицы измерения" style="shape=partialRectangle;connectable=0;fillColor=none;top=0;left=0;bottom=0;right=0;align=left;spacingLeft=6;overflow=hidden;whiteSpace=wrap;html=1;" parent="UtjECsLi1JTCb0Gw62uX-17" vertex="1">
          <mxGeometry x="30" width="290" height="30" as="geometry">
            <mxRectangle width="290" height="30" as="alternateBounds" />
          </mxGeometry>
        </mxCell>
        <mxCell id="UtjECsLi1JTCb0Gw62uX-20" value="Записи кровянного давления" style="shape=table;startSize=30;container=1;collapsible=1;childLayout=tableLayout;fixedRows=1;rowLines=0;fontStyle=1;align=center;resizeLast=1;html=1;" parent="1" vertex="1">
          <mxGeometry x="1754" y="226" width="320" height="180" as="geometry" />
        </mxCell>
        <mxCell id="UtjECsLi1JTCb0Gw62uX-21" value="" style="shape=tableRow;horizontal=0;startSize=0;swimlaneHead=0;swimlaneBody=0;fillColor=none;collapsible=0;dropTarget=0;points=[[0,0.5],[1,0.5]];portConstraint=eastwest;top=0;left=0;right=0;bottom=1;" parent="UtjECsLi1JTCb0Gw62uX-20" vertex="1">
          <mxGeometry y="30" width="320" height="30" as="geometry" />
        </mxCell>
        <mxCell id="UtjECsLi1JTCb0Gw62uX-22" value="PK" style="shape=partialRectangle;connectable=0;fillColor=none;top=0;left=0;bottom=0;right=0;fontStyle=1;overflow=hidden;whiteSpace=wrap;html=1;" parent="UtjECsLi1JTCb0Gw62uX-21" vertex="1">
          <mxGeometry width="30" height="30" as="geometry">
            <mxRectangle width="30" height="30" as="alternateBounds" />
          </mxGeometry>
        </mxCell>
        <mxCell id="UtjECsLi1JTCb0Gw62uX-23" value="ID записи" style="shape=partialRectangle;connectable=0;fillColor=none;top=0;left=0;bottom=0;right=0;align=left;spacingLeft=6;fontStyle=5;overflow=hidden;whiteSpace=wrap;html=1;" parent="UtjECsLi1JTCb0Gw62uX-21" vertex="1">
          <mxGeometry x="30" width="290" height="30" as="geometry">
            <mxRectangle width="290" height="30" as="alternateBounds" />
          </mxGeometry>
        </mxCell>
        <mxCell id="UtjECsLi1JTCb0Gw62uX-24" value="" style="shape=tableRow;horizontal=0;startSize=0;swimlaneHead=0;swimlaneBody=0;fillColor=none;collapsible=0;dropTarget=0;points=[[0,0.5],[1,0.5]];portConstraint=eastwest;top=0;left=0;right=0;bottom=0;" parent="UtjECsLi1JTCb0Gw62uX-20" vertex="1">
          <mxGeometry y="60" width="320" height="30" as="geometry" />
        </mxCell>
        <mxCell id="UtjECsLi1JTCb0Gw62uX-25" value="" style="shape=partialRectangle;connectable=0;fillColor=none;top=0;left=0;bottom=0;right=0;editable=1;overflow=hidden;whiteSpace=wrap;html=1;" parent="UtjECsLi1JTCb0Gw62uX-24" vertex="1">
          <mxGeometry width="30" height="30" as="geometry">
            <mxRectangle width="30" height="30" as="alternateBounds" />
          </mxGeometry>
        </mxCell>
        <mxCell id="UtjECsLi1JTCb0Gw62uX-26" value="Систолическое" style="shape=partialRectangle;connectable=0;fillColor=none;top=0;left=0;bottom=0;right=0;align=left;spacingLeft=6;overflow=hidden;whiteSpace=wrap;html=1;" parent="UtjECsLi1JTCb0Gw62uX-24" vertex="1">
          <mxGeometry x="30" width="290" height="30" as="geometry">
            <mxRectangle width="290" height="30" as="alternateBounds" />
          </mxGeometry>
        </mxCell>
        <mxCell id="UtjECsLi1JTCb0Gw62uX-27" value="" style="shape=tableRow;horizontal=0;startSize=0;swimlaneHead=0;swimlaneBody=0;fillColor=none;collapsible=0;dropTarget=0;points=[[0,0.5],[1,0.5]];portConstraint=eastwest;top=0;left=0;right=0;bottom=0;" parent="UtjECsLi1JTCb0Gw62uX-20" vertex="1">
          <mxGeometry y="90" width="320" height="30" as="geometry" />
        </mxCell>
        <mxCell id="UtjECsLi1JTCb0Gw62uX-28" value="" style="shape=partialRectangle;connectable=0;fillColor=none;top=0;left=0;bottom=0;right=0;editable=1;overflow=hidden;whiteSpace=wrap;html=1;" parent="UtjECsLi1JTCb0Gw62uX-27" vertex="1">
          <mxGeometry width="30" height="30" as="geometry">
            <mxRectangle width="30" height="30" as="alternateBounds" />
          </mxGeometry>
        </mxCell>
        <mxCell id="UtjECsLi1JTCb0Gw62uX-29" value="Диастолическое" style="shape=partialRectangle;connectable=0;fillColor=none;top=0;left=0;bottom=0;right=0;align=left;spacingLeft=6;overflow=hidden;whiteSpace=wrap;html=1;" parent="UtjECsLi1JTCb0Gw62uX-27" vertex="1">
          <mxGeometry x="30" width="290" height="30" as="geometry">
            <mxRectangle width="290" height="30" as="alternateBounds" />
          </mxGeometry>
        </mxCell>
        <mxCell id="UtjECsLi1JTCb0Gw62uX-30" value="" style="shape=tableRow;horizontal=0;startSize=0;swimlaneHead=0;swimlaneBody=0;fillColor=none;collapsible=0;dropTarget=0;points=[[0,0.5],[1,0.5]];portConstraint=eastwest;top=0;left=0;right=0;bottom=0;" parent="UtjECsLi1JTCb0Gw62uX-20" vertex="1">
          <mxGeometry y="120" width="320" height="30" as="geometry" />
        </mxCell>
        <mxCell id="UtjECsLi1JTCb0Gw62uX-31" value="" style="shape=partialRectangle;connectable=0;fillColor=none;top=0;left=0;bottom=0;right=0;editable=1;overflow=hidden;whiteSpace=wrap;html=1;" parent="UtjECsLi1JTCb0Gw62uX-30" vertex="1">
          <mxGeometry width="30" height="30" as="geometry">
            <mxRectangle width="30" height="30" as="alternateBounds" />
          </mxGeometry>
        </mxCell>
        <mxCell id="UtjECsLi1JTCb0Gw62uX-32" value="Пульс" style="shape=partialRectangle;connectable=0;fillColor=none;top=0;left=0;bottom=0;right=0;align=left;spacingLeft=6;overflow=hidden;whiteSpace=wrap;html=1;" parent="UtjECsLi1JTCb0Gw62uX-30" vertex="1">
          <mxGeometry x="30" width="290" height="30" as="geometry">
            <mxRectangle width="290" height="30" as="alternateBounds" />
          </mxGeometry>
        </mxCell>
        <mxCell id="UtjECsLi1JTCb0Gw62uX-33" value="" style="shape=tableRow;horizontal=0;startSize=0;swimlaneHead=0;swimlaneBody=0;fillColor=none;collapsible=0;dropTarget=0;points=[[0,0.5],[1,0.5]];portConstraint=eastwest;top=0;left=0;right=0;bottom=0;" parent="UtjECsLi1JTCb0Gw62uX-20" vertex="1">
          <mxGeometry y="150" width="320" height="30" as="geometry" />
        </mxCell>
        <mxCell id="UtjECsLi1JTCb0Gw62uX-34" value="" style="shape=partialRectangle;connectable=0;fillColor=none;top=0;left=0;bottom=0;right=0;editable=1;overflow=hidden;whiteSpace=wrap;html=1;" parent="UtjECsLi1JTCb0Gw62uX-33" vertex="1">
          <mxGeometry width="30" height="30" as="geometry">
            <mxRectangle width="30" height="30" as="alternateBounds" />
          </mxGeometry>
        </mxCell>
        <mxCell id="UtjECsLi1JTCb0Gw62uX-35" value="Дата и время записи" style="shape=partialRectangle;connectable=0;fillColor=none;top=0;left=0;bottom=0;right=0;align=left;spacingLeft=6;overflow=hidden;whiteSpace=wrap;html=1;" parent="UtjECsLi1JTCb0Gw62uX-33" vertex="1">
          <mxGeometry x="30" width="290" height="30" as="geometry">
            <mxRectangle width="290" height="30" as="alternateBounds" />
          </mxGeometry>
        </mxCell>
        <mxCell id="QC3cjJD-eim02CmkWT1z-1" value="Клиенты" style="shape=table;startSize=29;container=1;collapsible=1;childLayout=tableLayout;fixedRows=1;rowLines=0;fontStyle=1;align=center;resizeLast=1;html=1;" vertex="1" parent="1">
          <mxGeometry x="-1621" y="299" width="518.8333333333336" height="210" as="geometry">
            <mxRectangle x="-1496" y="251" width="83" height="30" as="alternateBounds" />
          </mxGeometry>
        </mxCell>
        <mxCell id="QC3cjJD-eim02CmkWT1z-2" value="" style="shape=tableRow;horizontal=0;startSize=0;swimlaneHead=0;swimlaneBody=0;fillColor=none;collapsible=0;dropTarget=0;points=[[0,0.5],[1,0.5]];portConstraint=eastwest;top=0;left=0;right=0;bottom=1;" vertex="1" parent="QC3cjJD-eim02CmkWT1z-1">
          <mxGeometry y="29" width="518.8333333333336" height="30" as="geometry" />
        </mxCell>
        <mxCell id="QC3cjJD-eim02CmkWT1z-3" value="PK, U, AI" style="shape=partialRectangle;connectable=0;fillColor=none;top=0;left=0;bottom=0;right=0;fontStyle=1;overflow=hidden;whiteSpace=wrap;html=1;" vertex="1" parent="QC3cjJD-eim02CmkWT1z-2">
          <mxGeometry width="101.83333333333326" height="30" as="geometry">
            <mxRectangle width="101.83333333333326" height="30" as="alternateBounds" />
          </mxGeometry>
        </mxCell>
        <mxCell id="QC3cjJD-eim02CmkWT1z-4" value="ID клиента" style="shape=partialRectangle;connectable=0;fillColor=none;top=0;left=0;bottom=0;right=0;align=left;spacingLeft=6;fontStyle=5;overflow=hidden;whiteSpace=wrap;html=1;" vertex="1" parent="QC3cjJD-eim02CmkWT1z-2">
          <mxGeometry x="101.83333333333326" width="269.3333333333337" height="30" as="geometry">
            <mxRectangle width="269.3333333333337" height="30" as="alternateBounds" />
          </mxGeometry>
        </mxCell>
        <mxCell id="QC3cjJD-eim02CmkWT1z-87" style="shape=partialRectangle;connectable=0;fillColor=none;top=0;left=0;bottom=0;right=0;align=center;spacingLeft=0;fontStyle=5;overflow=hidden;whiteSpace=wrap;html=1;" vertex="1" parent="QC3cjJD-eim02CmkWT1z-2">
          <mxGeometry x="371.16666666666697" width="147.66666666666663" height="30" as="geometry">
            <mxRectangle width="147.66666666666663" height="30" as="alternateBounds" />
          </mxGeometry>
        </mxCell>
        <mxCell id="QC3cjJD-eim02CmkWT1z-5" value="" style="shape=tableRow;horizontal=0;startSize=0;swimlaneHead=0;swimlaneBody=0;fillColor=none;collapsible=0;dropTarget=0;points=[[0,0.5],[1,0.5]];portConstraint=eastwest;top=0;left=0;right=0;bottom=0;" vertex="1" parent="QC3cjJD-eim02CmkWT1z-1">
          <mxGeometry y="59" width="518.8333333333336" height="30" as="geometry" />
        </mxCell>
        <mxCell id="QC3cjJD-eim02CmkWT1z-6" value="" style="shape=partialRectangle;connectable=0;fillColor=none;top=0;left=0;bottom=0;right=0;editable=1;overflow=hidden;whiteSpace=wrap;html=1;" vertex="1" parent="QC3cjJD-eim02CmkWT1z-5">
          <mxGeometry width="101.83333333333326" height="30" as="geometry">
            <mxRectangle width="101.83333333333326" height="30" as="alternateBounds" />
          </mxGeometry>
        </mxCell>
        <mxCell id="QC3cjJD-eim02CmkWT1z-7" value="Фамилия" style="shape=partialRectangle;connectable=0;fillColor=none;top=0;left=0;bottom=0;right=0;align=left;spacingLeft=6;overflow=hidden;whiteSpace=wrap;html=1;" vertex="1" parent="QC3cjJD-eim02CmkWT1z-5">
          <mxGeometry x="101.83333333333326" width="269.3333333333337" height="30" as="geometry">
            <mxRectangle width="269.3333333333337" height="30" as="alternateBounds" />
          </mxGeometry>
        </mxCell>
        <mxCell id="QC3cjJD-eim02CmkWT1z-88" style="shape=partialRectangle;connectable=0;fillColor=none;top=0;left=0;bottom=0;right=0;align=center;spacingLeft=0;overflow=hidden;whiteSpace=wrap;html=1;" vertex="1" parent="QC3cjJD-eim02CmkWT1z-5">
          <mxGeometry x="371.16666666666697" width="147.66666666666663" height="30" as="geometry">
            <mxRectangle width="147.66666666666663" height="30" as="alternateBounds" />
          </mxGeometry>
        </mxCell>
        <mxCell id="QC3cjJD-eim02CmkWT1z-8" value="" style="shape=tableRow;horizontal=0;startSize=0;swimlaneHead=0;swimlaneBody=0;fillColor=none;collapsible=0;dropTarget=0;points=[[0,0.5],[1,0.5]];portConstraint=eastwest;top=0;left=0;right=0;bottom=0;" vertex="1" parent="QC3cjJD-eim02CmkWT1z-1">
          <mxGeometry y="89" width="518.8333333333336" height="30" as="geometry" />
        </mxCell>
        <mxCell id="QC3cjJD-eim02CmkWT1z-9" value="NN" style="shape=partialRectangle;connectable=0;fillColor=none;top=0;left=0;bottom=0;right=0;editable=1;overflow=hidden;whiteSpace=wrap;html=1;" vertex="1" parent="QC3cjJD-eim02CmkWT1z-8">
          <mxGeometry width="101.83333333333326" height="30" as="geometry">
            <mxRectangle width="101.83333333333326" height="30" as="alternateBounds" />
          </mxGeometry>
        </mxCell>
        <mxCell id="QC3cjJD-eim02CmkWT1z-10" value="Имя" style="shape=partialRectangle;connectable=0;fillColor=none;top=0;left=0;bottom=0;right=0;align=left;spacingLeft=6;overflow=hidden;whiteSpace=wrap;html=1;" vertex="1" parent="QC3cjJD-eim02CmkWT1z-8">
          <mxGeometry x="101.83333333333326" width="269.3333333333337" height="30" as="geometry">
            <mxRectangle width="269.3333333333337" height="30" as="alternateBounds" />
          </mxGeometry>
        </mxCell>
        <mxCell id="QC3cjJD-eim02CmkWT1z-89" value="[1..35]" style="shape=partialRectangle;connectable=0;fillColor=none;top=0;left=0;bottom=0;right=0;align=center;spacingLeft=0;overflow=hidden;whiteSpace=wrap;html=1;" vertex="1" parent="QC3cjJD-eim02CmkWT1z-8">
          <mxGeometry x="371.16666666666697" width="147.66666666666663" height="30" as="geometry">
            <mxRectangle width="147.66666666666663" height="30" as="alternateBounds" />
          </mxGeometry>
        </mxCell>
        <mxCell id="QC3cjJD-eim02CmkWT1z-11" value="" style="shape=tableRow;horizontal=0;startSize=0;swimlaneHead=0;swimlaneBody=0;fillColor=none;collapsible=0;dropTarget=0;points=[[0,0.5],[1,0.5]];portConstraint=eastwest;top=0;left=0;right=0;bottom=0;" vertex="1" parent="QC3cjJD-eim02CmkWT1z-1">
          <mxGeometry y="119" width="518.8333333333336" height="30" as="geometry" />
        </mxCell>
        <mxCell id="QC3cjJD-eim02CmkWT1z-12" value="" style="shape=partialRectangle;connectable=0;fillColor=none;top=0;left=0;bottom=0;right=0;editable=1;overflow=hidden;whiteSpace=wrap;html=1;" vertex="1" parent="QC3cjJD-eim02CmkWT1z-11">
          <mxGeometry width="101.83333333333326" height="30" as="geometry">
            <mxRectangle width="101.83333333333326" height="30" as="alternateBounds" />
          </mxGeometry>
        </mxCell>
        <mxCell id="QC3cjJD-eim02CmkWT1z-13" value="Отчество" style="shape=partialRectangle;connectable=0;fillColor=none;top=0;left=0;bottom=0;right=0;align=left;spacingLeft=6;overflow=hidden;whiteSpace=wrap;html=1;" vertex="1" parent="QC3cjJD-eim02CmkWT1z-11">
          <mxGeometry x="101.83333333333326" width="269.3333333333337" height="30" as="geometry">
            <mxRectangle width="269.3333333333337" height="30" as="alternateBounds" />
          </mxGeometry>
        </mxCell>
        <mxCell id="QC3cjJD-eim02CmkWT1z-90" value="" style="shape=partialRectangle;connectable=0;fillColor=none;top=0;left=0;bottom=0;right=0;align=center;spacingLeft=0;overflow=hidden;whiteSpace=wrap;html=1;" vertex="1" parent="QC3cjJD-eim02CmkWT1z-11">
          <mxGeometry x="371.16666666666697" width="147.66666666666663" height="30" as="geometry">
            <mxRectangle width="147.66666666666663" height="30" as="alternateBounds" />
          </mxGeometry>
        </mxCell>
        <mxCell id="QC3cjJD-eim02CmkWT1z-14" value="" style="shape=tableRow;horizontal=0;startSize=0;swimlaneHead=0;swimlaneBody=0;fillColor=none;collapsible=0;dropTarget=0;points=[[0,0.5],[1,0.5]];portConstraint=eastwest;top=0;left=0;right=0;bottom=0;" vertex="1" parent="QC3cjJD-eim02CmkWT1z-1">
          <mxGeometry y="149" width="518.8333333333336" height="30" as="geometry" />
        </mxCell>
        <mxCell id="QC3cjJD-eim02CmkWT1z-15" value="NN, U" style="shape=partialRectangle;connectable=0;fillColor=none;top=0;left=0;bottom=0;right=0;editable=1;overflow=hidden;whiteSpace=wrap;html=1;" vertex="1" parent="QC3cjJD-eim02CmkWT1z-14">
          <mxGeometry width="101.83333333333326" height="30" as="geometry">
            <mxRectangle width="101.83333333333326" height="30" as="alternateBounds" />
          </mxGeometry>
        </mxCell>
        <mxCell id="QC3cjJD-eim02CmkWT1z-16" value="Телефон" style="shape=partialRectangle;connectable=0;fillColor=none;top=0;left=0;bottom=0;right=0;align=left;spacingLeft=6;overflow=hidden;whiteSpace=wrap;html=1;" vertex="1" parent="QC3cjJD-eim02CmkWT1z-14">
          <mxGeometry x="101.83333333333326" width="269.3333333333337" height="30" as="geometry">
            <mxRectangle width="269.3333333333337" height="30" as="alternateBounds" />
          </mxGeometry>
        </mxCell>
        <mxCell id="QC3cjJD-eim02CmkWT1z-91" value="[1..18]" style="shape=partialRectangle;connectable=0;fillColor=none;top=0;left=0;bottom=0;right=0;align=center;spacingLeft=0;overflow=hidden;whiteSpace=wrap;html=1;" vertex="1" parent="QC3cjJD-eim02CmkWT1z-14">
          <mxGeometry x="371.16666666666697" width="147.66666666666663" height="30" as="geometry">
            <mxRectangle width="147.66666666666663" height="30" as="alternateBounds" />
          </mxGeometry>
        </mxCell>
        <mxCell id="QC3cjJD-eim02CmkWT1z-92" value="" style="shape=tableRow;horizontal=0;startSize=0;swimlaneHead=0;swimlaneBody=0;fillColor=none;collapsible=0;dropTarget=0;points=[[0,0.5],[1,0.5]];portConstraint=eastwest;top=0;left=0;right=0;bottom=0;" vertex="1" parent="QC3cjJD-eim02CmkWT1z-1">
          <mxGeometry y="179" width="518.8333333333336" height="30" as="geometry" />
        </mxCell>
        <mxCell id="QC3cjJD-eim02CmkWT1z-93" value="NN" style="shape=partialRectangle;connectable=0;fillColor=none;top=0;left=0;bottom=0;right=0;editable=1;overflow=hidden;whiteSpace=wrap;html=1;" vertex="1" parent="QC3cjJD-eim02CmkWT1z-92">
          <mxGeometry width="101.83333333333326" height="30" as="geometry">
            <mxRectangle width="101.83333333333326" height="30" as="alternateBounds" />
          </mxGeometry>
        </mxCell>
        <mxCell id="QC3cjJD-eim02CmkWT1z-94" value="Согласен с политикой конфиденциальности" style="shape=partialRectangle;connectable=0;fillColor=none;top=0;left=0;bottom=0;right=0;align=left;spacingLeft=6;overflow=hidden;whiteSpace=wrap;html=1;" vertex="1" parent="QC3cjJD-eim02CmkWT1z-92">
          <mxGeometry x="101.83333333333326" width="269.3333333333337" height="30" as="geometry">
            <mxRectangle width="269.3333333333337" height="30" as="alternateBounds" />
          </mxGeometry>
        </mxCell>
        <mxCell id="QC3cjJD-eim02CmkWT1z-95" value="[да/нет]" style="shape=partialRectangle;connectable=0;fillColor=none;top=0;left=0;bottom=0;right=0;align=center;spacingLeft=0;overflow=hidden;whiteSpace=wrap;html=1;" vertex="1" parent="QC3cjJD-eim02CmkWT1z-92">
          <mxGeometry x="371.16666666666697" width="147.66666666666663" height="30" as="geometry">
            <mxRectangle width="147.66666666666663" height="30" as="alternateBounds" />
          </mxGeometry>
        </mxCell>
        <mxCell id="QC3cjJD-eim02CmkWT1z-29" value="Обращения" style="shape=table;startSize=30;container=1;collapsible=1;childLayout=tableLayout;fixedRows=1;rowLines=0;fontStyle=1;align=center;resizeLast=1;html=1;" vertex="1" parent="1">
          <mxGeometry x="-848" y="60" width="448.16666666666686" height="150" as="geometry" />
        </mxCell>
        <mxCell id="QC3cjJD-eim02CmkWT1z-30" value="" style="shape=tableRow;horizontal=0;startSize=0;swimlaneHead=0;swimlaneBody=0;fillColor=none;collapsible=0;dropTarget=0;points=[[0,0.5],[1,0.5]];portConstraint=eastwest;top=0;left=0;right=0;bottom=1;" vertex="1" parent="QC3cjJD-eim02CmkWT1z-29">
          <mxGeometry y="30" width="448.16666666666686" height="30" as="geometry" />
        </mxCell>
        <mxCell id="QC3cjJD-eim02CmkWT1z-31" value="PK, U, AI" style="shape=partialRectangle;connectable=0;fillColor=none;top=0;left=0;bottom=0;right=0;fontStyle=1;overflow=hidden;whiteSpace=wrap;html=1;" vertex="1" parent="QC3cjJD-eim02CmkWT1z-30">
          <mxGeometry width="68.44186046511618" height="30" as="geometry">
            <mxRectangle width="68.44186046511618" height="30" as="alternateBounds" />
          </mxGeometry>
        </mxCell>
        <mxCell id="QC3cjJD-eim02CmkWT1z-32" value="ID обращения" style="shape=partialRectangle;connectable=0;fillColor=none;top=0;left=0;bottom=0;right=0;align=left;spacingLeft=6;fontStyle=5;overflow=hidden;whiteSpace=wrap;html=1;" vertex="1" parent="QC3cjJD-eim02CmkWT1z-30">
          <mxGeometry x="68.44186046511618" width="305.7248062015504" height="30" as="geometry">
            <mxRectangle width="305.7248062015504" height="30" as="alternateBounds" />
          </mxGeometry>
        </mxCell>
        <mxCell id="QC3cjJD-eim02CmkWT1z-96" style="shape=partialRectangle;connectable=0;fillColor=none;top=0;left=0;bottom=0;right=0;align=left;spacingLeft=6;fontStyle=5;overflow=hidden;whiteSpace=wrap;html=1;" vertex="1" parent="QC3cjJD-eim02CmkWT1z-30">
          <mxGeometry x="374.1666666666666" width="74.00000000000028" height="30" as="geometry">
            <mxRectangle width="74.00000000000028" height="30" as="alternateBounds" />
          </mxGeometry>
        </mxCell>
        <mxCell id="QC3cjJD-eim02CmkWT1z-33" value="" style="shape=tableRow;horizontal=0;startSize=0;swimlaneHead=0;swimlaneBody=0;fillColor=none;collapsible=0;dropTarget=0;points=[[0,0.5],[1,0.5]];portConstraint=eastwest;top=0;left=0;right=0;bottom=0;" vertex="1" parent="QC3cjJD-eim02CmkWT1z-29">
          <mxGeometry y="60" width="448.16666666666686" height="30" as="geometry" />
        </mxCell>
        <mxCell id="QC3cjJD-eim02CmkWT1z-34" value="FK, U" style="shape=partialRectangle;connectable=0;fillColor=none;top=0;left=0;bottom=0;right=0;editable=1;overflow=hidden;whiteSpace=wrap;html=1;" vertex="1" parent="QC3cjJD-eim02CmkWT1z-33">
          <mxGeometry width="68.44186046511618" height="30" as="geometry">
            <mxRectangle width="68.44186046511618" height="30" as="alternateBounds" />
          </mxGeometry>
        </mxCell>
        <mxCell id="QC3cjJD-eim02CmkWT1z-35" value="ID_клиента" style="shape=partialRectangle;connectable=0;fillColor=none;top=0;left=0;bottom=0;right=0;align=left;spacingLeft=6;overflow=hidden;whiteSpace=wrap;html=1;" vertex="1" parent="QC3cjJD-eim02CmkWT1z-33">
          <mxGeometry x="68.44186046511618" width="305.7248062015504" height="30" as="geometry">
            <mxRectangle width="305.7248062015504" height="30" as="alternateBounds" />
          </mxGeometry>
        </mxCell>
        <mxCell id="QC3cjJD-eim02CmkWT1z-97" style="shape=partialRectangle;connectable=0;fillColor=none;top=0;left=0;bottom=0;right=0;align=left;spacingLeft=6;overflow=hidden;whiteSpace=wrap;html=1;" vertex="1" parent="QC3cjJD-eim02CmkWT1z-33">
          <mxGeometry x="374.1666666666666" width="74.00000000000028" height="30" as="geometry">
            <mxRectangle width="74.00000000000028" height="30" as="alternateBounds" />
          </mxGeometry>
        </mxCell>
        <mxCell id="QC3cjJD-eim02CmkWT1z-48" value="" style="shape=tableRow;horizontal=0;startSize=0;swimlaneHead=0;swimlaneBody=0;fillColor=none;collapsible=0;dropTarget=0;points=[[0,0.5],[1,0.5]];portConstraint=eastwest;top=0;left=0;right=0;bottom=0;" vertex="1" parent="QC3cjJD-eim02CmkWT1z-29">
          <mxGeometry y="90" width="448.16666666666686" height="30" as="geometry" />
        </mxCell>
        <mxCell id="QC3cjJD-eim02CmkWT1z-49" value="NN, U" style="shape=partialRectangle;connectable=0;fillColor=none;top=0;left=0;bottom=0;right=0;editable=1;overflow=hidden;whiteSpace=wrap;html=1;" vertex="1" parent="QC3cjJD-eim02CmkWT1z-48">
          <mxGeometry width="68.44186046511618" height="30" as="geometry">
            <mxRectangle width="68.44186046511618" height="30" as="alternateBounds" />
          </mxGeometry>
        </mxCell>
        <mxCell id="QC3cjJD-eim02CmkWT1z-50" value="Номер обращения для данного клиента (1, 2, ...)" style="shape=partialRectangle;connectable=0;fillColor=none;top=0;left=0;bottom=0;right=0;align=left;spacingLeft=6;overflow=hidden;whiteSpace=wrap;html=1;" vertex="1" parent="QC3cjJD-eim02CmkWT1z-48">
          <mxGeometry x="68.44186046511618" width="305.7248062015504" height="30" as="geometry">
            <mxRectangle width="305.7248062015504" height="30" as="alternateBounds" />
          </mxGeometry>
        </mxCell>
        <mxCell id="QC3cjJD-eim02CmkWT1z-98" style="shape=partialRectangle;connectable=0;fillColor=none;top=0;left=0;bottom=0;right=0;align=left;spacingLeft=6;overflow=hidden;whiteSpace=wrap;html=1;" vertex="1" parent="QC3cjJD-eim02CmkWT1z-48">
          <mxGeometry x="374.1666666666666" width="74.00000000000028" height="30" as="geometry">
            <mxRectangle width="74.00000000000028" height="30" as="alternateBounds" />
          </mxGeometry>
        </mxCell>
        <mxCell id="QC3cjJD-eim02CmkWT1z-36" value="" style="shape=tableRow;horizontal=0;startSize=0;swimlaneHead=0;swimlaneBody=0;fillColor=none;collapsible=0;dropTarget=0;points=[[0,0.5],[1,0.5]];portConstraint=eastwest;top=0;left=0;right=0;bottom=0;" vertex="1" parent="QC3cjJD-eim02CmkWT1z-29">
          <mxGeometry y="120" width="448.16666666666686" height="30" as="geometry" />
        </mxCell>
        <mxCell id="QC3cjJD-eim02CmkWT1z-37" value="NN" style="shape=partialRectangle;connectable=0;fillColor=none;top=0;left=0;bottom=0;right=0;editable=1;overflow=hidden;whiteSpace=wrap;html=1;" vertex="1" parent="QC3cjJD-eim02CmkWT1z-36">
          <mxGeometry width="68.44186046511618" height="30" as="geometry">
            <mxRectangle width="68.44186046511618" height="30" as="alternateBounds" />
          </mxGeometry>
        </mxCell>
        <mxCell id="QC3cjJD-eim02CmkWT1z-38" value="Дата и время обращения" style="shape=partialRectangle;connectable=0;fillColor=none;top=0;left=0;bottom=0;right=0;align=left;spacingLeft=6;overflow=hidden;whiteSpace=wrap;html=1;" vertex="1" parent="QC3cjJD-eim02CmkWT1z-36">
          <mxGeometry x="68.44186046511618" width="305.7248062015504" height="30" as="geometry">
            <mxRectangle width="305.7248062015504" height="30" as="alternateBounds" />
          </mxGeometry>
        </mxCell>
        <mxCell id="QC3cjJD-eim02CmkWT1z-99" style="shape=partialRectangle;connectable=0;fillColor=none;top=0;left=0;bottom=0;right=0;align=left;spacingLeft=6;overflow=hidden;whiteSpace=wrap;html=1;" vertex="1" parent="QC3cjJD-eim02CmkWT1z-36">
          <mxGeometry x="374.1666666666666" width="74.00000000000028" height="30" as="geometry">
            <mxRectangle width="74.00000000000028" height="30" as="alternateBounds" />
          </mxGeometry>
        </mxCell>
        <mxCell id="QC3cjJD-eim02CmkWT1z-45" value="" style="edgeStyle=entityRelationEdgeStyle;fontSize=12;html=1;endArrow=ERoneToMany;rounded=0;entryX=0;entryY=0.5;entryDx=0;entryDy=0;exitX=1;exitY=0.5;exitDx=0;exitDy=0;" edge="1" parent="1" source="QC3cjJD-eim02CmkWT1z-2" target="QC3cjJD-eim02CmkWT1z-33">
          <mxGeometry width="100" height="100" relative="1" as="geometry">
            <mxPoint x="-1118" y="480" as="sourcePoint" />
            <mxPoint x="-871" y="359" as="targetPoint" />
          </mxGeometry>
        </mxCell>
        <mxCell id="QC3cjJD-eim02CmkWT1z-46" value="Text" style="edgeLabel;html=1;align=center;verticalAlign=middle;resizable=0;points=[];" vertex="1" connectable="0" parent="QC3cjJD-eim02CmkWT1z-45">
          <mxGeometry x="-0.1034" y="3" relative="1" as="geometry">
            <mxPoint x="9" y="-4" as="offset" />
          </mxGeometry>
        </mxCell>
        <mxCell id="QC3cjJD-eim02CmkWT1z-47" value="Клиенты могут оставлять обращения&lt;br&gt;на обратный звонок,&lt;br&gt;обращений может быть несколько" style="edgeLabel;html=1;align=center;verticalAlign=middle;resizable=0;points=[];" vertex="1" connectable="0" parent="QC3cjJD-eim02CmkWT1z-45">
          <mxGeometry x="-0.0008" y="-2" relative="1" as="geometry">
            <mxPoint as="offset" />
          </mxGeometry>
        </mxCell>
        <mxCell id="QC3cjJD-eim02CmkWT1z-51" value="&lt;font style=&quot;font-size: 60px;&quot;&gt;ПОЛИМЕРБЕТОН БД&lt;/font&gt;" style="text;html=1;align=center;verticalAlign=middle;resizable=0;points=[];autosize=1;strokeColor=none;fillColor=none;" vertex="1" parent="1">
          <mxGeometry x="-1416" y="-113" width="620" height="84" as="geometry" />
        </mxCell>
      </root>
    </mxGraphModel>
  </diagram>
</mxfile>
